<?xml version="1.0" encoding="UTF-8" standalone="no"?>
<svg
   xmlns:dc="http://purl.org/dc/elements/1.1/"
   xmlns:cc="http://creativecommons.org/ns#"
   xmlns:rdf="http://www.w3.org/1999/02/22-rdf-syntax-ns#"
   xmlns:svg="http://www.w3.org/2000/svg"
   xmlns="http://www.w3.org/2000/svg"
   id="svg8"
   version="1.1"
   viewBox="0 0 507.99999 285.75001"
   height="1080"
   width="1920">
  <defs
     id="defs2">
    <clipPath
       clipPathUnits="userSpaceOnUse"
       id="clipPath5638">
      <rect
         style="color:#000000;clip-rule:nonzero;display:inline;overflow:visible;visibility:visible;opacity:1;isolation:auto;mix-blend-mode:normal;color-interpolation:sRGB;color-interpolation-filters:linearRGB;solid-color:#000000;solid-opacity:1;vector-effect:none;fill:#000000;fill-opacity:1;fill-rule:nonzero;stroke:none;stroke-width:5;stroke-linecap:butt;stroke-linejoin:miter;stroke-miterlimit:4;stroke-dasharray:none;stroke-dashoffset:0;stroke-opacity:1;marker:none;paint-order:fill markers stroke;color-rendering:auto;image-rendering:auto;shape-rendering:auto;text-rendering:auto;enable-background:accumulate"
         id="rect5640"
         width="625"
         height="792"
         x="5.4466233e-07"
         y="0" />
    </clipPath>
  </defs>
  <metadata
     id="metadata5">
    <rdf:RDF>
      <cc:Work
         rdf:about="">
        <dc:format>image/svg+xml</dc:format>
        <dc:type
           rdf:resource="http://purl.org/dc/dcmitype/StillImage" />
        <dc:title></dc:title>
      </cc:Work>
    </rdf:RDF>
  </metadata>
  <g
     transform="translate(0,-3.6467746)"
     id="g1591">
    <g
       id="layer1"
       transform="matrix(0.41215297,0,0,0.41215297,149.31315,122.58761)">
      <rect
         style="fill:#000000;fill-opacity:1;stroke:none;stroke-width:0.510787;stroke-linecap:round;stroke-miterlimit:4;stroke-dasharray:none;stroke-opacity:1;paint-order:fill markers stroke;stop-color:#000000"
         id="rect833"
         width="164.83081"
         height="21.915537"
         x="171.58461"
         y="131.91722" />
      <text
         xml:space="preserve"
         style="font-style:normal;font-variant:normal;font-weight:normal;font-stretch:normal;font-size:12.7253px;line-height:1.25;font-family:'Noto Sans';-inkscape-font-specification:'Noto Sans';fill:#ffffff;fill-opacity:1;stroke:none;stroke-width:0.318132"
         x="253.7155"
         y="147.3175"
         id="text837"><tspan
           id="tspan835"
           x="255.3683"
           y="147.3175"
           style="font-style:normal;font-variant:normal;font-weight:bold;font-stretch:normal;font-family:'Noto Sans';-inkscape-font-specification:'Noto Sans';text-align:center;text-anchor:middle;fill:#ffffff;fill-opacity:1;stroke-width:0.318132">we'll be right back... </tspan></text>
    </g>
    <g
       id="g1573"
       transform="matrix(0.411141,0,0,0.411141,156.24021,91.992449)">
      <path
         id="rect4962-7"
         style="color:#000000;clip-rule:nonzero;display:inline;overflow:visible;visibility:visible;opacity:1;isolation:auto;mix-blend-mode:normal;color-interpolation:sRGB;color-interpolation-filters:linearRGB;solid-color:#000000;solid-opacity:1;vector-effect:none;fill:#ffffff;fill-opacity:1;fill-rule:nonzero;stroke:none;stroke-width:1.32292;stroke-linecap:butt;stroke-linejoin:miter;stroke-miterlimit:4;stroke-dasharray:none;stroke-dashoffset:0;stroke-opacity:1;marker:none;paint-order:fill markers stroke;color-rendering:auto;image-rendering:auto;shape-rendering:auto;text-rendering:auto;enable-background:accumulate"
         d="M 319.79755,37.29333 H 155.75587 v 164.43441 h 164.04168 z" />
      <path
         transform="scale(0.26458334)"
         d="M 1208.6836,450.52344 V 140.95117 H 588.68359 v 309.57227 m 0,36.18554 V 762.43555 H 1208.6836 V 486.70898"
         style="color:#000000;clip-rule:nonzero;display:inline;overflow:visible;visibility:visible;opacity:1;isolation:auto;mix-blend-mode:normal;color-interpolation:sRGB;color-interpolation-filters:linearRGB;solid-color:#000000;solid-opacity:1;vector-effect:none;fill:none;fill-opacity:1;fill-rule:nonzero;stroke:#000000;stroke-width:5.00001;stroke-linecap:butt;stroke-linejoin:miter;stroke-miterlimit:4;stroke-dasharray:none;stroke-dashoffset:0;stroke-opacity:1;marker:none;paint-order:fill markers stroke;color-rendering:auto;image-rendering:auto;shape-rendering:auto;text-rendering:auto;enable-background:accumulate"
         id="rect4962" />
      <path
         transform="scale(0.26458334)"
         d="m 597.3418,138.45117 163.34961,171.99219 10.9082,-13.84375 -108.63477,-158.14844 z m 102.01172,0 c 13.11586,19.02293 102.44921,162.76367 102.44921,162.76367 l 10.06641,-7.9707 -64.86523,-154.79297 z m 88.60937,0 c 10.91792,27.08715 63.33984,162.76367 63.33984,162.76367 l 6.71094,-20.13672 -30.71484,-142.62695 z m 66.89649,0 24.54882,148.5 10.48633,-0.83984 1.21875,-147.66016 z m 52.25,0 0.40429,135.4961 10.90625,6.29296 25.16406,-141.78906 z m 64.04492,0 -30.08008,140.10938 8.80859,11.32617 59.37889,-151.43555 z m 79.3516,0 -60.3516,144.30469 10.9062,10.06836 97.6915,-154.37305 z m 83.6425,0 -107.498,156.47071 15.5195,7.9707 157.6739,-164.44141 z m -547.96481,27 v 63.92969 l 132.14063,94.48633 23.07031,-6.29297 z m 624.50001,0.60352 c -27.5203,27.75054 -152.9922,149.84179 -152.9922,149.84179 l 18.877,8.38868 L 1210.6836,230 Z m 0,106.04883 -104.3301,62.25 10.4863,20.13671 93.8438,-37.38671 z m -624.50001,0.7832 v 44.70508 l 85.9961,33.54101 41.10937,-3.77539 z m 624.50001,73.2539 -61.1231,22.61133 0.42,6.29297 3.3554,20.97461 57.3477,-11.76367 z m -624.50001,0.32422 v 38.29493 l 35.65625,7.90234 48.24219,-15.51953 z m 567.15231,184.63086 -3.3554,20.97461 -0.42,6.29102 61.1231,22.61133 v -38.11328 z m -531.49606,3.35547 -35.65625,7.9043 v 38.29492 l 83.89844,-30.67773 z m 494.99996,38.17383 -18.0371,15.10156 111.8809,67.19922 v -44.91601 z m -444.66011,3.35547 -85.9961,33.54101 v 44.70508 l 127.10547,-74.4707 z m 62.08398,17.19922 -148.08008,102.98047 v 65.51757 L 753.56055,597.79492 Z m 334.75393,4.61523 -15.9395,7.55078 c 0,0 129.6453,127.27295 157.6055,155.67969 v -65.03516 z m -41.1094,10.90625 -13.4238,4.61524 101.7968,149.11914 h 60.9102 z m -244.14453,2.09766 -23.07226,5.87305 -138.43946,145.76367 h 58.39844 z m 194.64453,3.77539 61.2754,147.86133 h 42.6406 l -91.74998,-146.1836 z m -161.92382,5.87305 -14.68165,5.45312 c 0,0 -55.60546,89.46604 -85.49609,136.53516 h 41.43359 z m 73.83007,4.61328 -8.38867,1.67968 -22.67383,135.69532 h 31.7461 z m -39.01172,0.83984 c 0,0 -34.02866,88.07262 -52.99023,136.53516 h 34.29297 l 28.3457,-135.69532 z m 55.37305,2.09766 0.33984,134.4375 h 32.14844 L 916.32422,628.41797 Z m 40.27149,0 -9.64844,1.25781 28.30078,133.17969 h 33.51758 z"
         style="opacity:1;vector-effect:none;fill:#000000;fill-opacity:1;fill-rule:evenodd;stroke:none;stroke-width:5.2413;stroke-linecap:round;stroke-linejoin:miter;stroke-miterlimit:4;stroke-dasharray:none;stroke-dashoffset:0;stroke-opacity:1;marker:none;paint-order:fill markers stroke"
         id="path4622" />
      <g
         transform="matrix(0.26458334,0,0,0.26458334,155.09464,36.632051)"
         id="g5636"
         clip-path="url(#clipPath5638)">
        <g
           id="g5557"
           transform="translate(-4.9746)" />
        <path
           id="path879-3-6-7-5-5-6"
           d="m 312.50097,158.24808 c -169.99805,0 -299.739833,149.82378 -322.693071,176.72883 56.692895,-46.92523 174.959311,-132.82268 322.693071,-132.82268 147.73609,0 266.00338,85.90031 322.69505,132.82506 C 612.24842,308.08035 482.50377,158.24808 312.50097,158.24808 Z"
           style="color:#000000;clip-rule:nonzero;display:inline;overflow:visible;visibility:visible;opacity:1;isolation:auto;mix-blend-mode:normal;color-interpolation:sRGB;color-interpolation-filters:linearRGB;solid-color:#000000;solid-opacity:1;vector-effect:none;fill:#ffffff;fill-opacity:1;fill-rule:nonzero;stroke:none;stroke-width:5.82566;stroke-linecap:round;stroke-linejoin:miter;stroke-miterlimit:4;stroke-dasharray:none;stroke-dashoffset:0;stroke-opacity:1;marker:none;paint-order:fill markers stroke;color-rendering:auto;image-rendering:auto;shape-rendering:auto;text-rendering:auto;enable-background:accumulate" />
        <path
           id="path879-3-6-7-5-3"
           d="m 312.50098,128.24568 c -223.217269,0 -343.41666,203.3631 -343.41666,203.3631 0,0 115.459539,168.42103 343.41666,168.42103 227.95712,0 343.4147,-168.42103 343.4147,-168.42103 0,0 -120.19744,-203.3631 -343.4147,-203.3631 z m 0,36.95884 c 185.83273,0 314.26104,162.18628 314.26104,162.18628 0,0 -124.60969,125.83452 -314.26104,125.83452 -189.65136,0 -314.2629905,-125.83452 -314.2629905,-125.83452 0,0 128.4302405,-162.18628 314.2629905,-162.18628 z"
           style="color:#000000;clip-rule:nonzero;display:inline;overflow:visible;visibility:visible;opacity:1;isolation:auto;mix-blend-mode:normal;color-interpolation:sRGB;color-interpolation-filters:linearRGB;solid-color:#000000;solid-opacity:1;vector-effect:none;fill:#000000;fill-opacity:1;fill-rule:nonzero;stroke:none;stroke-width:5.24129;stroke-linecap:round;stroke-linejoin:miter;stroke-miterlimit:4;stroke-dasharray:none;stroke-dashoffset:0;stroke-opacity:1;marker:none;paint-order:fill markers stroke;color-rendering:auto;image-rendering:auto;shape-rendering:auto;text-rendering:auto;enable-background:accumulate" />
        <path
           id="path879-3-6-7-5-5"
           d="m 312.50092,410.83234 c -169.9981,0 -299.739797,-68.12142 -322.692997,-90.04003 56.6928,38.22834 168.959297,72.51317 322.692997,72.51317 153.7361,0 266.0034,-34.28712 322.6951,-72.5151 -22.9476,21.91365 -152.6923,90.04196 -322.6951,90.04196 z"
           style="color:#000000;clip-rule:nonzero;display:inline;overflow:visible;visibility:visible;opacity:1;isolation:auto;mix-blend-mode:normal;color-interpolation:sRGB;color-interpolation-filters:linearRGB;solid-color:#000000;solid-opacity:1;vector-effect:none;fill:#000000;fill-opacity:1;fill-rule:nonzero;stroke:none;stroke-width:5.25817;stroke-linecap:round;stroke-linejoin:miter;stroke-miterlimit:4;stroke-dasharray:none;stroke-dashoffset:0;stroke-opacity:1;marker:none;paint-order:fill markers stroke;color-rendering:auto;image-rendering:auto;shape-rendering:auto;text-rendering:auto;enable-background:accumulate" />
        <g
           transform="matrix(3.7795274,0,0,3.7795274,-582.89224,-138.45183)"
           id="g1776">
          <path
             style="fill:none;stroke:#000000;stroke-width:2.57414;stroke-linecap:round;stroke-linejoin:miter;stroke-miterlimit:4;stroke-dasharray:none;stroke-opacity:1"
             d="m 284.77213,138.26134 c 0.6097,1.25612 0.72177,2.60972 0.80833,2.62705"
             id="path1701-5" />
          <path
             id="path1727"
             d="m 185.51483,136.66286 -1.50309,3.00618"
             style="font-variation-settings:normal;opacity:1;vector-effect:none;fill:none;fill-opacity:1;stroke:#000000;stroke-width:2.57414;stroke-linecap:round;stroke-linejoin:miter;stroke-miterlimit:4;stroke-dasharray:none;stroke-dashoffset:0;stroke-opacity:1;stop-color:#000000;stop-opacity:1" />
          <path
             id="path1734"
             d="m 201.64908,141.07752 -0.78571,3.5357"
             style="font-variation-settings:normal;opacity:1;vector-effect:none;fill:none;fill-opacity:1;stroke:#000000;stroke-width:2.57414;stroke-linecap:round;stroke-linejoin:miter;stroke-miterlimit:4;stroke-dasharray:none;stroke-dashoffset:0;stroke-opacity:1;stop-color:#000000;stop-opacity:1" />
          <path
             id="path1741"
             d="m 220.0796,143.73023 -0.80442,4.50474"
             style="font-variation-settings:normal;opacity:1;vector-effect:none;fill:none;fill-opacity:1;stroke:#000000;stroke-width:2.57414;stroke-linecap:round;stroke-linejoin:miter;stroke-miterlimit:4;stroke-dasharray:none;stroke-dashoffset:0;stroke-opacity:1;stop-color:#000000;stop-opacity:1" />
          <path
             id="path1748"
             d="m 236.92525,144.78978 0.16089,4.8265"
             style="font-variation-settings:normal;opacity:1;vector-effect:none;fill:none;fill-opacity:1;stroke:#000000;stroke-width:2.57414;stroke-linecap:round;stroke-linejoin:miter;stroke-miterlimit:4;stroke-dasharray:none;stroke-dashoffset:0;stroke-opacity:1;stop-color:#000000;stop-opacity:1" />
          <path
             id="path1755"
             d="m 253.10967,143.65004 0.54562,4.98689"
             style="font-variation-settings:normal;opacity:1;vector-effect:none;fill:none;fill-opacity:1;stroke:#000000;stroke-width:2.57414;stroke-linecap:round;stroke-linejoin:miter;stroke-miterlimit:4;stroke-dasharray:none;stroke-dashoffset:0;stroke-opacity:1;stop-color:#000000;stop-opacity:1" />
          <path
             id="path1762"
             d="m 268.66644,141.63874 1.12618,4.02209"
             style="font-variation-settings:normal;opacity:1;vector-effect:none;fill:none;fill-opacity:1;stroke:#000000;stroke-width:2.57414;stroke-linecap:round;stroke-linejoin:miter;stroke-miterlimit:4;stroke-dasharray:none;stroke-dashoffset:0;stroke-opacity:1;stop-color:#000000;stop-opacity:1" />
        </g>
      </g>
    </g>
  </g>
</svg>
